<svg width="18" height="16" viewBox="0 0 18 16" fill="none" xmlns="http://www.w3.org/2000/svg">
<path d="M8.99998 15.5C8.46248 15.0234 7.85498 14.5275 7.21248 14H7.20415C4.94165 12.15 2.37748 10.0567 1.24498 7.54835C0.87291 6.74979 0.675732 5.88096 0.666635 5.00002C0.664151 3.79126 1.14895 2.63251 2.01149 1.78566C2.87402 0.938812 4.04147 0.47535 5.24998 0.500021C6.23384 0.501575 7.19651 0.785922 8.02331 1.31919C8.38662 1.555 8.71533 1.84023 8.99998 2.16669C9.28622 1.84152 9.61502 1.55644 9.97748 1.31919C10.8039 0.785817 11.7664 0.501453 12.75 0.500021C13.9585 0.47535 15.1259 0.938812 15.9885 1.78566C16.851 2.63251 17.3358 3.79126 17.3333 5.00002C17.3248 5.88237 17.1276 6.75268 16.755 7.55252C15.6225 10.0609 13.0591 12.1534 10.7966 14L10.7883 14.0067C10.145 14.5309 9.53831 15.0267 9.00081 15.5067L8.99998 15.5ZM5.24998 2.16669C4.47374 2.15697 3.72504 2.45406 3.16665 2.99335C2.62863 3.52183 2.32794 4.24589 2.33324 5.00002C2.34275 5.64211 2.48817 6.2749 2.75998 6.85669C3.29457 7.93894 4.0159 8.9184 4.89081 9.75002C5.71665 10.5834 6.66665 11.39 7.48831 12.0684C7.71581 12.2559 7.94748 12.445 8.17915 12.6342L8.32498 12.7534C8.54748 12.935 8.77748 13.1234 8.99998 13.3084L9.01081 13.2984L9.01581 13.2942H9.02081L9.02831 13.2884H9.03248H9.03664L9.05165 13.2759L9.08581 13.2484L9.09165 13.2434L9.10081 13.2367H9.10581L9.11331 13.23L9.66665 12.7759L9.81165 12.6567C10.0458 12.4659 10.2775 12.2767 10.505 12.0892C11.3266 11.4109 12.2775 10.605 13.1033 9.76752C13.9783 8.93632 14.6997 7.95712 15.2341 6.87502C15.5109 6.28819 15.6584 5.64878 15.6667 5.00002C15.6701 4.24822 15.3696 3.52693 14.8333 3.00002C14.276 2.45829 13.5272 2.15876 12.75 2.16669C11.8016 2.15863 10.8949 2.55616 10.2583 3.25919L8.99998 4.70919L7.74165 3.25919C7.10503 2.55616 6.19838 2.15863 5.24998 2.16669Z" fill="#303030"/>
</svg>
